<?xml version="1.0" encoding="UTF-8" ?>
<!DOCTYPE svg PUBLIC "-//W3C//DTD SVG 1.1//EN" "http://www.w3.org/Graphics/SVG/1.1/DTD/svg11.dtd">
<svg width="1000pt" height="1000pt" viewBox="0 0 1000 1000" version="1.1" xmlns="http://www.w3.org/2000/svg">
<g id="#f05133ff">
<path fill="#f05133" opacity="1.00" d=" M 467.33 35.26 C 486.05 23.62 511.13 23.44 530.02 34.80 C 538.17 39.41 544.37 46.53 550.96 53.01 C 684.13 186.17 817.29 319.34 950.46 452.50 C 954.27 456.35 958.28 460.04 961.50 464.43 C 970.76 476.70 975.02 492.57 973.24 507.84 C 971.74 521.62 965.30 534.75 955.42 544.46 C 821.76 678.13 688.09 811.79 554.43 945.46 C 546.54 953.21 539.15 961.88 529.03 966.82 C 507.32 978.40 478.80 974.90 460.59 958.36 C 451.40 949.56 442.57 940.41 433.52 931.47 C 303.66 801.62 173.79 671.78 43.95 541.92 C 32.49 530.44 26.00 514.23 26.35 498.02 C 26.54 482.21 33.22 466.63 44.53 455.59 C 138.96 361.17 233.37 266.73 327.82 172.33 C 363.61 208.13 399.44 243.91 435.19 279.75 C 428.17 296.49 427.73 315.86 434.05 332.89 C 440.89 351.86 456.15 367.29 474.67 375.07 C 474.55 461.72 474.65 548.37 474.62 635.01 C 460.73 640.77 448.67 650.86 440.68 663.61 C 432.03 677.27 428.24 693.89 430.00 709.95 C 431.54 724.82 437.86 739.13 447.79 750.29 C 458.85 762.88 474.39 771.42 490.96 773.93 C 507.06 776.47 523.99 773.41 538.13 765.28 C 551.71 757.54 562.66 745.31 568.82 730.94 C 575.47 715.59 576.55 697.93 571.84 681.88 C 566.33 662.68 552.46 645.98 534.44 637.30 C 534.11 551.37 534.39 465.40 534.30 379.46 C 566.95 412.08 599.58 444.73 632.22 477.37 C 626.85 490.50 625.37 505.20 628.17 519.12 C 631.13 534.44 639.28 548.69 650.94 559.06 C 663.22 570.16 679.42 576.77 695.96 577.51 C 710.53 578.21 725.31 574.41 737.69 566.67 C 751.58 558.04 762.44 544.60 767.83 529.15 C 772.96 514.68 773.32 498.56 768.83 483.88 C 763.62 466.47 751.52 451.27 735.80 442.18 C 717.86 431.66 695.34 429.60 675.72 436.43 C 640.71 401.43 605.66 366.46 570.71 331.40 C 575.98 316.20 576.01 299.25 570.74 284.04 C 565.37 268.25 554.27 254.53 540.05 245.83 C 522.01 234.66 499.01 232.22 478.96 239.05 C 442.64 202.76 406.34 166.44 370.03 130.14 C 396.54 103.60 423.08 77.09 449.60 50.55 C 455.09 45.00 460.52 39.23 467.33 35.26 Z" />
</g>
</svg>
