<?xml version="1.0" encoding="utf-8"?>
<!-- Generator: Adobe Illustrator 22.0.1, SVG Export Plug-In . SVG Version: 6.00 Build 0)  -->
<svg version="1.1" id="Layer_1" xmlns="http://www.w3.org/2000/svg" xmlns:xlink="http://www.w3.org/1999/xlink" x="0px" y="0px"
	 viewBox="0 0 128 128" style="enable-background:new 0 0 128 128;" xml:space="preserve">
<style type="text/css">
	.st0{fill:#B475D8;}
	.st1{fill:#FFFFFF;}
</style>
<g>
	<path id="fill" class="st0" d="M64,128C28.7,128-0.1,99.3-0.1,63.9S28.6,0,64,0s64.1,28.7,64.1,64.1S99.3,128,64,128z"/>
</g>
<g>
	<path class="st1" d="M100.4,92.6c-3.4,0-6.2,2.2-7.3,5.2H71.3c-0.8-2.2-2.5-3.9-4.7-4.7V81.9c12.9-0.4,25.9-3.7,25.9-10.3v-7.8
		c0,4.3-12.7,7.8-28.5,7.8s-28.5-3.5-28.5-7.8v7.8c0,6.6,13,9.9,25.9,10.3v11.2c-2.2,0.8-3.9,2.5-4.7,4.7H34.9
		c-1.1-3-3.9-5.2-7.3-5.2c-4.3,0-7.8,3.5-7.8,7.8c0,4.3,3.5,7.8,7.8,7.8c3.4,0,6.2-2.2,7.3-5.2h21.8c1.1,3,3.9,5.2,7.3,5.2
		s6.2-2.2,7.3-5.2h21.8c1.1,3,3.9,5.2,7.3,5.2c4.3,0,7.8-3.5,7.8-7.8C108.2,96.1,104.7,92.6,100.4,92.6z"/>
	<path class="st1" d="M92.5,27.6c0-4.3-12.7-7.8-28.5-7.8s-28.5,3.5-28.5,7.8s12.7,7.8,28.5,7.8S92.5,31.9,92.5,27.6z"/>
	<path class="st1" d="M92.5,32.8c0,4.3-12.7,7.8-28.5,7.8s-28.5-3.5-28.5-7.8v7.8c0,7.1,14.8,10.4,28.5,10.4s28.5-3.3,28.5-10.4
		V32.8z"/>
	<path class="st1" d="M35.5,48.3v7.8c0,7.1,14.8,10.4,28.5,10.4s28.5-3.3,28.5-10.4v-7.8c0,4.3-12.7,7.8-28.5,7.8
		S35.5,52.6,35.5,48.3z"/>
</g>
<g>
	<rect x="60.2" y="81.9" class="st0" width="7.5" height="3.6"/>
</g>
</svg>
