<?xml version="1.0" encoding="utf-8"?>
<!-- Generator: Adobe Illustrator 22.0.1, SVG Export Plug-In . SVG Version: 6.00 Build 0)  -->
<svg version="1.1" id="Layer_1_copy" xmlns="http://www.w3.org/2000/svg" xmlns:xlink="http://www.w3.org/1999/xlink" x="0px"
	 y="0px" viewBox="0 0 128 128" style="enable-background:new 0 0 128 128;" xml:space="preserve">
<style type="text/css">
	.st0{fill:#FEC300;}
	.st1{fill:#FFFFFF;}
</style>
<rect class="st0" width="128" height="128"/>
<g>
	<g>
		<path class="st1" d="M49.4,74.8v8.8L18.1,70v-7.5l31.3-13.6v8.9l-21.8,8.4L49.4,74.8z"/>
		<path class="st1" d="M71.5,48.8l-8.7,35.9c-0.3,1.2-0.5,2.1-0.8,2.8c-0.2,0.7-0.6,1.2-1,1.6c-0.4,0.4-1.1,0.6-1.9,0.6
			c-2.1,0-3.2-0.9-3.2-2.7c0-0.5,0.2-1.7,0.6-3.6l8.7-35.9c0.5-1.9,0.9-3.2,1.3-3.9c0.4-0.7,1.2-1.1,2.4-1.1c1,0,1.8,0.3,2.4,0.7
			c0.6,0.5,0.8,1.2,0.8,2.1C72.1,45.9,71.9,47,71.5,48.8z"/>
		<path class="st1" d="M109.9,70L78.6,83.6v-8.8l21.9-8.6l-21.9-8.5v-8.7l31.3,13.5V70z"/>
	</g>
</g>
</svg>
