<?xml version="1.0" encoding="utf-8"?>
<!-- Generator: Adobe Illustrator 22.0.1, SVG Export Plug-In . SVG Version: 6.00 Build 0)  -->
<svg version="1.1" id="Layer_1_copy" xmlns="http://www.w3.org/2000/svg" xmlns:xlink="http://www.w3.org/1999/xlink" x="0px"
	 y="0px" viewBox="0 0 128 128" style="enable-background:new 0 0 128 128;" xml:space="preserve">
<style type="text/css">
	.st0{fill:#5FB832;}
	.st1{fill:#FFFFFF;}
</style>
<path class="st0" d="M106.8,17.5c-1.7,4-3.7,7.5-6,10.7C90.5,17.6,76.1,11,60.1,11C28.8,11,3.3,36.5,3.3,67.8
	c0,16.4,7,31.2,18.2,41.6l1.2,1.1c-2.1-1.7-2.4-4.7-0.7-6.8c1.7-2.1,4.8-2.4,6.8-0.7c2.1,1.7,2.4,4.7,0.7,6.8
	c-1.7,2.1-4.7,2.4-6.8,0.7l0.8,0.8c9.9,8.3,22.6,13.4,36.5,13.4c30,0,54.6-23.3,56.7-52.7C118.3,57.5,114.1,39.2,106.8,17.5"/>
<path class="st1" d="M106.6,92.8c-14,18.7-43.9,12.4-63.1,13.3c0,0-3.4,0.2-6.8,0.8c0,0,1.3-0.6,2.9-1.1c13.5-4.7,19.8-5.6,28-9.8
	c15.4-7.9,30.7-25,33.8-42.9C95.6,70.2,77.8,85,61.6,91c-11.1,4.1-31.2,8.1-31.2,8.1c0,0-0.8-0.4-0.8-0.4
	c-13.7-6.6-14-36.2,10.7-45.7c10.9-4.2,21.3-1.9,33-4.7c12.5-3,27-12.4,32.9-24.7C112.9,43.2,120.9,73.9,106.6,92.8z"/>
<circle class="st1" cx="25.8" cy="106.8" r="4.9"/>
</svg>
